<svg width="48" height="48" viewBox="0 0 48 48" fill="none" xmlns="http://www.w3.org/2000/svg">
<circle cx="24" cy="24" r="24" fill="#FEF4F6"/>
<circle cx="24" cy="24" r="17" fill="#FFE9F1"/>
<path fill-rule="evenodd" clip-rule="evenodd" d="M20.7464 21.4606C20.7183 21.4315 20.6897 21.4029 20.6607 21.3749C19.3071 20.0686 17.1508 20.107 15.8445 21.4606L15.7763 21.5313C14.4089 22.9482 14.4089 25.1933 15.7763 26.6102C15.8035 26.6384 15.8313 26.6662 15.8596 26.6935C17.1755 27.9634 19.2717 27.9261 20.5416 26.6102L23.1288 23.9293L20.7464 21.4606ZM27.4584 26.6102C28.7283 27.9261 30.8245 27.9634 32.1405 26.6935C32.1687 26.6662 32.1965 26.6384 32.2237 26.6102C33.5911 25.1933 33.5911 22.9482 32.2237 21.5313L32.1555 21.4606C30.8492 20.107 28.6929 20.0686 27.3393 21.3749C27.3103 21.4029 27.2817 21.4315 27.2536 21.4606L24.8713 23.9293L27.4584 26.6102ZM24 22.852L24.9214 21.8972H24.9894L24.9555 21.862L26.2642 20.5058C26.3036 20.4649 26.3437 20.4249 26.3845 20.3854C28.2846 18.5518 31.3113 18.6057 33.1449 20.5058L33.2132 20.5765C35.0946 22.5261 35.0946 25.6154 33.2132 27.565C33.1746 27.605 33.1353 27.6443 33.0953 27.6829C31.2329 29.4802 28.2662 29.4274 26.469 27.565L24.9555 25.9966L24.9894 25.9614H24.9214L24 25.0065L23.0786 25.9614H23.0106L23.0446 25.9966L21.531 27.565C19.7338 29.4274 16.7671 29.4802 14.9048 27.6829C14.8648 27.6443 14.8254 27.605 14.7868 27.565C12.9054 25.6154 12.9054 22.5261 14.7868 20.5765L14.8551 20.5058C16.6887 18.6057 19.7155 18.5518 21.6155 20.3854C21.6563 20.4249 21.6964 20.4649 21.7358 20.5058L23.0446 21.862L23.0106 21.8972H23.0786L24 22.852Z" fill="#F83062"/>
</svg>
